<svg xmlns="http://www.w3.org/2000/svg" xmlns:xlink="http://www.w3.org/1999/xlink" preserveAspectRatio="xMidYMid" width="20" height="14" viewBox="0 0 20 14">
  <defs>
    <style>
      .cls-1 {
        fill: #3e425a;
        fill-rule: evenodd;
      }
    </style>
  </defs>
  <path d="M19.000,14.000 L1.000,14.000 C0.448,14.000 -0.000,13.552 -0.000,13.000 L-0.000,13.000 C-0.000,12.448 0.448,12.000 1.000,12.000 L19.000,12.000 C19.552,12.000 20.000,12.448 20.000,13.000 L20.000,13.000 C20.000,13.552 19.552,14.000 19.000,14.000 ZM19.000,8.000 L1.000,8.000 C0.448,8.000 -0.000,7.552 -0.000,7.000 L-0.000,7.000 C-0.000,6.448 0.448,6.000 1.000,6.000 L19.000,6.000 C19.552,6.000 20.000,6.448 20.000,7.000 L20.000,7.000 C20.000,7.552 19.552,8.000 19.000,8.000 ZM19.000,2.000 L1.000,2.000 C0.448,2.000 -0.000,1.552 -0.000,1.000 L-0.000,1.000 C-0.000,0.448 0.448,0.000 1.000,0.000 L19.000,0.000 C19.552,0.000 20.000,0.448 20.000,1.000 L20.000,1.000 C20.000,1.552 19.552,2.000 19.000,2.000 Z" class="cls-1"/>
</svg>
