<?xml version="1.0" encoding="utf-8"?>
<svg xmlns="http://www.w3.org/2000/svg"
	xmlns:xlink="http://www.w3.org/1999/xlink"
	width="84px" height="84px" viewBox="0 0 42 42">
<g><path fillRule="evenodd" d="M 21 40C 31.48 40 40 31.48 40 21 40 10.52 31.48 2 21 2 10.52 2 2 10.52 2 21 2 31.48 10.52 40 21 40M 21 42C 9.4 42-0 32.6-0 21-0 9.4 9.4 0 21 0 32.6 0 42 9.4 42 21 42 32.6 32.6 42 21 42 21 42 21 42 21 42Z" fill="rgb(255,255,255)" opacity="0.20"/><path fillRule="evenodd" d="M 23.67 21.88C 23.67 21.88 19.83 25.7 19.83 25.7 19.41 26.12 18.72 26.12 18.3 25.7 17.87 25.28 17.87 24.59 18.3 24.17 18.3 24.17 21.46 21.01 21.46 21.01 21.46 21.01 18.3 17.86 18.3 17.86 17.87 17.43 17.87 16.75 18.3 16.33 18.72 15.9 19.41 15.9 19.83 16.33 19.83 16.33 23.67 20.15 23.67 20.15 23.9 20.39 23.99 20.7 23.97 21.01 23.99 21.32 23.9 21.64 23.67 21.88Z" fill="rgb(255,255,255)"/></g></svg>